<?xml version="1.0" encoding="UTF-8"?> <svg xmlns="http://www.w3.org/2000/svg" width="752.3" height="240" viewBox="0 0 752.3 240"><path d="M292.9 94h-20.1v44.3h7.2v-15.8h12.9c11.9 0 16.1-4.1 16.1-11v-6.6c0-6.8-4.1-10.9-16.1-10.9zm9 17.5c0 4.3-2.3 5.9-9.2 5.9H280V99.1h12.7c6.8 0 9.2 1.5 9.2 5.9v6.5zM353.5 94c-13.5 0-19 5.9-19 13.1v18.2c0 7.2 5.4 13.1 19 13.1 13.5 0 19-5.9 19-13.1V107c0-7.1-5.4-13-19-13zm12.2 31.1c0 5.3-3.9 8.3-12.2 8.3-8.3 0-12.2-3-12.2-8.3v-18c0-5.3 3.9-8.3 12.2-8.3 8.3 0 12.2 3 12.2 8.3v18zM410.9 94h-7.3v44.5h31.7V132h-24.4V94zm63.8 16.8L459.9 94H453l17.7 21.7v22.8h8v-22.8l19-21.7h-6.9l-16.1 16.8zm43.9-10.3h16v37.8h6.9v-37.8h16V94h-39l.1 6.5zm72 17.6h22.8V113h-22.8V99.1h24.6V94h-31.5v44.3h31.6v-5.1h-24.7v-15.1zm76-19c3.5 0 9.3.3 13.8.9l.8-4.9c-4.2-.7-10.4-1.2-14.8-1.2-14.4 0-20.1 4.6-20.1 12.9v19.4c0 8.3 5.7 12.9 20.1 12.9 4.4 0 10.6-.5 14.8-1.2l-.8-4.9c-4.5.6-10.2.9-13.8.9-9.6 0-12.8-2-12.8-8.1v-18.7c0-6 3.1-8 12.8-8zm78.7-5.1v19.1h-23.9V94h-7v44.3h7v-20.1h23.9v20.1h7V94h-7z" fill="#002866"></path><path d="M112.5 0C57.2 0 11 39.2.3 91.4h48.2c9.5-26.2 34.6-44.9 64.1-44.9 38.5 0 69.6 32 68.1 70.8-1.3 35-29.6 63.6-64.5 65.4-31.6 1.6-58.8-18.3-68.2-46.4H0c.3 1.7.7 3.3 1 4.9v66.4C1 225.5 15.6 240 33.5 240h9.4v-34.5c19.5 15 44.1 23.8 70.6 23.6 62.8-.5 113.9-52.4 113.6-115.2C226.8 51 175.6 0 112.5 0zm179 184.8l-11.3-28.3h-5.9v34.7h4.6v-13.5l-.5-14.5 11.4 28h3.5l11.4-28.1-.4 14.6v13.5h4.6v-34.7H303l-11.5 28.3zm51.2-26.8c-2.1-1.3-4.6-2-7.4-2-2.7 0-5.2.7-7.3 2-2.1 1.4-3.8 3.3-4.9 5.9-1.2 2.6-1.7 5.5-1.7 8.8v2.5c0 3.3.6 6.2 1.8 8.6 1.2 2.5 2.8 4.4 4.9 5.7 2.1 1.3 4.5 2 7.3 2s5.2-.7 7.3-2c2.1-1.3 3.7-3.3 4.9-5.8 1.1-2.5 1.7-5.5 1.7-8.9v-2.2c0-3.4-.6-6.4-1.7-8.9-1.2-2.4-2.8-4.3-4.9-5.7zm2 17.3c0 4-.9 7.1-2.5 9.3-1.6 2.2-3.9 3.2-6.9 3.2-2.9 0-5.2-1.1-6.9-3.4-1.7-2.3-2.5-5.4-2.5-9.4v-2.5c0-3.9.9-7 2.6-9.2 1.7-2.2 3.9-3.3 6.8-3.3 3 0 5.3 1.1 6.9 3.3s2.5 5.4 2.5 9.5v2.5zm39.3 8l-17.5-26.9h-4.6v34.7h4.6v-26.7l17.5 26.7h4.6v-34.7H384v26.9zm14.8-23.1h11.1v31h4.6v-31h11.2v-3.7h-26.8v3.7zm59.4-.8c-2.2-1.9-5.1-2.9-8.9-2.9h-12.8v34.7h4.6v-13.6h8.2c3.9 0 6.9-.9 9-2.7 2.1-1.8 3.2-4.4 3.2-7.8-.1-3.2-1.1-5.8-3.3-7.7zm-3.3 12.7c-1.3 1.2-3.2 1.7-5.6 1.7h-8.2v-13.6h8.5c2.3 0 4.1.7 5.4 1.9 1.3 1.2 2 2.9 2 5-.1 2.2-.8 3.9-2.1 5zm22.7 3h15v-3.7h-15v-11.2h17.2v-3.7H473v34.7h22v-3.7h-17.5v-12.4zm33.4-18.6h-4.6v34.7h21v-3.7H511v-31zm32 0h-4.6v34.7h21v-3.7H543v-31zm27.7 34.7h4.6v-34.7h-4.6v34.7zm23.2-16.1h15v-3.7h-15v-11.2h17.2v-3.7h-21.8v34.7h22v-3.7h-17.5v-12.4zm45.9 1.1c2.1-.8 3.7-2 4.9-3.6s1.8-3.5 1.8-5.6c0-3.4-1.1-6-3.2-7.8-2.1-1.8-5.1-2.7-9-2.7h-11.5v34.7h4.6v-14h8.1l7.5 14h4.9v-.3l-8.1-14.7zm-5.4-2.8h-7v-13.2h7c2.4 0 4.3.6 5.5 1.7 1.3 1.1 1.9 2.8 1.9 4.9 0 2-.7 3.5-2 4.7s-3.1 1.9-5.4 1.9z" fill="#1d9edf"></path></svg> 